<svg width="36" height="36" viewBox="0 0 21 22" fill="none" xmlns="http://www.w3.org/2000/svg">
<path d="M6 5C6.99456 5 7.94839 5.39509 8.65165 6.09835C9.35491 6.80161 9.75 7.75544 9.75 8.75C9.74827 9.56207 9.48298 10.3516 8.994 11H9C9.39782 11 9.77936 11.158 10.0607 11.4393C10.342 11.7206 10.5 12.1022 10.5 12.5C10.5 12.8978 10.342 13.2794 10.0607 13.5607C9.77936 13.842 9.39782 14 9 14H8.313C8.6115 15.785 9.933 16.8845 10.8405 17.4395C11.4825 17.8325 12 18.5465 12 19.409C12 20.5625 11.064 21.5 9.9075 21.5H2.0925C0.9375 21.5 0 20.564 0 19.4075C0 18.5465 0.5175 17.8325 1.1595 17.4395C2.067 16.8845 3.3885 15.785 3.687 14H3C2.60218 14 2.22064 13.842 1.93934 13.5607C1.65804 13.2794 1.5 12.8978 1.5 12.5C1.5 12.1022 1.65804 11.7206 1.93934 11.4393C2.22064 11.158 2.60218 11 3 11H3.006C2.51702 10.3516 2.25173 9.56207 2.25 8.75C2.25 7.75544 2.64509 6.80161 3.34835 6.09835C4.05161 5.39509 5.00544 5 6 5ZM12 0.5C12.1989 0.5 12.3897 0.579018 12.5303 0.71967C12.671 0.860322 12.75 1.05109 12.75 1.25V2.75C12.75 2.94891 12.829 3.13968 12.9697 3.28033C13.1103 3.42098 13.3011 3.5 13.5 3.5C13.6989 3.5 13.8897 3.42098 14.0303 3.28033C14.171 3.13968 14.25 2.94891 14.25 2.75V1.25C14.25 1.05109 14.329 0.860322 14.4697 0.71967C14.6103 0.579018 14.8011 0.5 15 0.5H16.5C16.6989 0.5 16.8897 0.579018 17.0303 0.71967C17.171 0.860322 17.25 1.05109 17.25 1.25V2.75C17.25 2.94891 17.329 3.13968 17.4697 3.28033C17.6103 3.42098 17.8011 3.5 18 3.5C18.1989 3.5 18.3897 3.42098 18.5303 3.28033C18.671 3.13968 18.75 2.94891 18.75 2.75V1.25C18.75 1.05109 18.829 0.860322 18.9697 0.71967C19.1103 0.579018 19.3011 0.5 19.5 0.5H19.875C20.1734 0.5 20.4595 0.618526 20.6705 0.829505C20.8815 1.04048 21 1.32663 21 1.625V5C20.9996 5.79383 20.6846 6.55515 20.124 7.11718C19.5634 7.6792 18.8028 7.99612 18.009 7.9985C18.1125 14.2115 19.494 16.6235 20.187 17.4455C20.565 17.8925 21 18.566 21 19.3595C21 20.5415 20.0415 21.5 18.8595 21.5H12.7995C13.2375 20.9 13.5 20.1605 13.5 19.3595C13.5 18.014 12.7755 16.9655 12.012 16.3295C12.6765 14.9705 13.416 12.47 13.4895 7.9985C12.6959 7.99572 11.9358 7.67863 11.3755 7.11665C10.8152 6.55466 10.5004 5.79357 10.5 5V1.625C10.5 1.32663 10.6185 1.04048 10.8295 0.829505C11.0405 0.618526 11.3266 0.5 11.625 0.5H12Z" fill="#F5F5F5"/>
</svg>
