<svg width="42" height="42" viewBox="0 0 42 42" fill="none" xmlns="http://www.w3.org/2000/svg">
<path d="M21 42C32.598 42 42 32.598 42 21C42 9.40202 32.598 0 21 0C9.40202 0 0 9.40202 0 21C0 32.598 9.40202 42 21 42Z" fill="#F4900C"/>
<path d="M21 37.9166C30.3428 37.9166 37.9167 30.3427 37.9167 20.9999C37.9167 11.6571 30.3428 4.08325 21 4.08325C11.6572 4.08325 4.08333 11.6571 4.08333 20.9999C4.08333 30.3427 11.6572 37.9166 21 37.9166Z" fill="#FFD983"/>
<path d="M21 36.1666C29.3763 36.1666 36.1667 29.3762 36.1667 20.9999C36.1667 12.6236 29.3763 5.83325 21 5.83325C12.6237 5.83325 5.83333 12.6236 5.83333 20.9999C5.83333 29.3762 12.6237 36.1666 21 36.1666Z" fill="#F5F8FA"/>
<path d="M21 9.33325L22.7862 16.6879L29.2495 12.7504L25.312 19.2138L32.6667 20.9999L25.312 22.7861L29.2495 29.2494L22.7862 25.3119L21 32.6666L19.2138 25.3119L12.7505 29.2494L16.688 22.7861L9.33333 20.9999L16.688 19.2138L12.7505 12.7504L19.2138 16.6879L21 9.33325Z" fill="#CCD6DD"/>
<path d="M20.2335 24.2061L30.4733 30.4839L24.1978 20.2429L20.2335 24.2061Z" fill="#292F33"/>
<path d="M21.7665 17.8115L11.5255 11.5337L17.8022 21.7759L21.7665 17.8115Z" fill="#DD2E44"/>
<path d="M21 24.5734C22.9684 24.5734 24.5642 22.9777 24.5642 21.0092C24.5642 19.0408 22.9684 17.4451 21 17.4451C19.0316 17.4451 17.4358 19.0408 17.4358 21.0092C17.4358 22.9777 19.0316 24.5734 21 24.5734Z" fill="#8899A6"/>
<path d="M21 22.932C22.0619 22.932 22.9227 22.0712 22.9227 21.0093C22.9227 19.9475 22.0619 19.0867 21 19.0867C19.9381 19.0867 19.0773 19.9475 19.0773 21.0093C19.0773 22.0712 19.9381 22.932 21 22.932Z" fill="#F5F8FA"/>
</svg>
