<svg width="40" height="40" viewBox="0 0 40 40" fill="none" xmlns="http://www.w3.org/2000/svg">
<path d="M32.5545 13.3045L35.9022 9.95679M32.5545 26.6955L35.9022 30.0433M33.391 20H39.25M7.4455 13.3045L4.09775 9.95679M7.4455 26.6955L4.09775 30.045M6.609 20H0.75" stroke="#F5F5F5" stroke-linecap="round" stroke-linejoin="round"/>
<path d="M28.2617 30.4946C28.2342 30.5678 28.1945 30.6358 28.1445 30.6959L20.6125 38.9821C20.5334 39.0672 20.4374 39.1349 20.3308 39.181C20.2242 39.227 20.1092 39.2505 19.993 39.2499V32.9569L28.2617 30.4946Z" fill="#66E1FF" stroke="#F5F5F5" stroke-linecap="round" stroke-linejoin="round"/>
<path d="M28.3685 7.61339V30.1271C28.3685 30.259 28.3352 30.3815 28.2687 30.4946L19.9982 32.9551V9.72214L28.2845 7.24414C28.3389 7.35908 28.3675 7.48624 28.3685 7.61339Z" fill="#66E1FF" stroke="#F5F5F5" stroke-linecap="round" stroke-linejoin="round"/>
<path d="M28.2775 7.24425L20 9.72225V0.75C20.1879 0.754023 20.3696 0.818453 20.518 0.93375L28.05 6.9625C28.1448 7.04003 28.2223 7.13487 28.2775 7.24425Z" fill="#66E1FF" stroke="#F5F5F5" stroke-linecap="round" stroke-linejoin="round"/>
<path d="M11.7225 30.4946C11.7501 30.5678 11.7897 30.6358 11.8398 30.6959L19.3735 38.9821C19.4526 39.0672 19.5486 39.1349 19.6552 39.181C19.7618 39.2271 19.8768 39.2505 19.993 39.2499V32.9551L11.7225 30.4946ZM11.6298 7.61339V30.1271C11.6298 30.259 11.663 30.3815 11.7295 30.4946L20 32.9551V9.72214L11.7068 7.24414C11.6548 7.35963 11.6285 7.48676 11.6298 7.61339Z" fill="#C2F3FF" stroke="#F5F5F5" stroke-linecap="round" stroke-linejoin="round"/>
<path d="M11.705 7.24425L20 9.72225V0.75C19.8115 0.753648 19.6292 0.818098 19.4803 0.93375L11.9465 6.9625C11.8472 7.03876 11.7655 7.13544 11.7068 7.246" fill="#C2F3FF"/>
<path d="M11.705 7.24425L20 9.72225V0.75C19.8115 0.753648 19.6292 0.818098 19.4803 0.93375L11.9465 6.9625C11.8472 7.03876 11.7655 7.13544 11.7068 7.246" stroke="#F5F5F5" stroke-linecap="round" stroke-linejoin="round"/>
</svg>
