<svg width="21" height="21" viewBox="0 0 21 21" fill="none" xmlns="http://www.w3.org/2000/svg">
<path d="M8.49995 12L19.4999 1M8.49995 12L11.9999 19C12.0438 19.0957 12.1143 19.1769 12.2029 19.2338C12.2915 19.2906 12.3946 19.3209 12.4999 19.3209C12.6053 19.3209 12.7084 19.2906 12.797 19.2338C12.8856 19.1769 12.9561 19.0957 12.9999 19L19.4999 1M8.49995 12L1.49995 8.5C1.40421 8.45613 1.32307 8.38569 1.26619 8.29705C1.20931 8.20842 1.17908 8.10532 1.17908 8C1.17908 7.89468 1.20931 7.79158 1.26619 7.70295C1.32307 7.61431 1.40421 7.54387 1.49995 7.5L19.4999 1" stroke="#B3F2EB" stroke-width="2" stroke-linecap="round" stroke-linejoin="round"/>
</svg>
