<svg width="250" height="63" viewBox="0 0 250 63" fill="none" xmlns="http://www.w3.org/2000/svg">
    <path d="M35 11C21.745 11 11 21.745 11 35C11 48.255 21.745 59 35 59C48.255 59 59 48.255 59 35C59 21.745 48.255 11 35 11ZM44.7625 30.66C44.7708 30.865 44.775 31.0683 44.775 31.27C44.775 37.52 40.0225 44.7225 31.3275 44.7225C28.7583 44.7261 26.2427 43.9882 24.0825 42.5975C24.4508 42.6408 24.8267 42.6617 25.21 42.66C27.425 42.66 29.4625 41.9075 31.08 40.6375C30.0943 40.6181 29.1392 40.2917 28.3478 39.7038C27.5564 39.1158 26.9681 38.2956 26.665 37.3575C27.3729 37.4921 28.1021 37.4639 28.7975 37.275C27.7272 37.0595 26.7645 36.4801 26.0731 35.6351C25.3818 34.7901 25.0043 33.7318 25.005 32.64V32.5825C25.6425 32.935 26.3725 33.15 27.1475 33.175C26.1445 32.5073 25.4345 31.4817 25.1626 30.3078C24.8908 29.134 25.0776 27.9006 25.685 26.86C26.8728 28.3195 28.3537 29.5136 30.0318 30.3649C31.71 31.2163 33.5482 31.706 35.4275 31.8025C35.1886 30.7883 35.2914 29.7235 35.72 28.7738C36.1487 27.824 36.8791 27.0425 37.7977 26.5507C38.7163 26.0588 39.7717 25.8843 40.7997 26.0542C41.8278 26.2241 42.7709 26.7288 43.4825 27.49C44.5404 27.2805 45.5549 26.8925 46.4825 26.3425C46.1299 27.4378 45.3917 28.3679 44.405 28.96C45.3421 28.8471 46.2572 28.5952 47.12 28.2125C46.4877 29.1634 45.689 29.9925 44.7625 30.66Z" fill="#009DFF"/>
    <g filter="url(#filter0_d_1117_2805)">
    <path d="M95 11C81.745 11 71 21.745 71 35C71 48.255 81.745 59 95 59C108.255 59 119 48.255 119 35C119 21.745 108.255 11 95 11ZM100.685 27.585H97.0775C96.65 27.585 96.175 28.1475 96.175 28.895V31.5H100.688L100.005 35.215H96.175V46.3675H91.9175V35.215H88.055V31.5H91.9175V29.315C91.9175 26.18 94.0925 23.6325 97.0775 23.6325H100.685V27.585Z" fill="#2839D0"/>
    </g>
    <path d="M155 11C141.745 11 131 21.745 131 35C131 48.255 141.745 59 155 59C168.255 59 179 48.255 179 35C179 21.745 168.255 11 155 11ZM153.618 45.3025C152.11 46.035 150.487 46.1125 149.86 46.1125H149.538C148.558 46.1125 143.68 45.8875 143.68 41.445C143.68 37.08 148.993 36.7375 150.62 36.7375H150.663C149.722 35.4825 149.917 34.2175 149.917 34.2175C149.801 34.2249 149.684 34.2283 149.568 34.2275C148.955 34.2275 147.772 34.13 146.757 33.475C145.512 32.675 144.882 31.3125 144.882 29.4275C144.882 24.1 150.7 23.885 150.758 23.88H156.568V24.0075C156.568 24.6575 155.4 24.785 154.605 24.8925C154.335 24.9325 153.793 24.985 153.64 25.0625C155.113 25.85 155.35 27.085 155.35 28.925C155.35 31.02 154.53 32.1275 153.66 32.905C153.12 33.3875 152.698 33.765 152.698 34.2725C152.698 34.77 153.278 35.2775 153.953 35.87C155.055 36.8425 156.568 38.165 156.568 40.3975C156.568 42.705 155.575 44.355 153.618 45.3025ZM166.25 35H162.5V38.75H160V35H156.25V32.5H160V28.75H162.5V32.5H166.25V35ZM150.557 37.875C150.427 37.8749 150.296 37.8799 150.165 37.89C149.103 37.9515 148.092 38.364 147.29 39.0625C146.555 39.7275 146.18 40.5675 146.233 41.415C146.345 43.1925 148.252 44.2325 150.57 44.0675C152.85 43.9025 154.37 42.5875 154.26 40.81C154.155 39.14 152.702 37.875 150.557 37.875ZM152.743 28.2125C152.138 26.0875 151.163 25.4575 149.648 25.4575C149.484 25.46 149.321 25.4827 149.163 25.525C148.505 25.7125 147.983 26.26 147.693 27.075C147.395 27.9 147.378 28.76 147.632 29.74C148.095 31.4925 149.34 32.7625 150.595 32.7625C150.759 32.7628 150.922 32.7401 151.08 32.695C152.453 32.31 153.313 30.215 152.743 28.2125Z" fill="#FF6868"/>
    <path d="M222.5 35C222.5 36.9891 221.71 38.8968 220.303 40.3033C218.897 41.7098 216.989 42.5 215 42.5C213.011 42.5 211.103 41.7098 209.697 40.3033C208.29 38.8968 207.5 36.9891 207.5 35C207.502 34.5717 207.542 34.155 207.622 33.75H205V43.7425C205 44.4375 205.562 45 206.257 45H223.745C224.078 44.9993 224.397 44.8666 224.633 44.6308C224.868 44.3951 225 44.0756 225 43.7425V33.75H222.378C222.458 34.155 222.498 34.5717 222.5 35ZM215 40C215.657 39.9998 216.307 39.8703 216.914 39.6188C217.521 39.3673 218.072 38.9988 218.536 38.5343C219 38.0698 219.369 37.5183 219.62 36.9115C219.871 36.3046 220 35.6543 220 34.9975C220 34.3407 219.87 33.6904 219.619 33.0837C219.367 32.477 218.999 31.9257 218.534 31.4614C218.07 30.9972 217.518 30.6289 216.911 30.3777C216.305 30.1265 215.654 29.9973 214.997 29.9975C213.671 29.9978 212.399 30.5251 211.461 31.4632C210.524 32.4014 209.997 33.6736 209.997 35C209.998 36.3264 210.525 37.5984 211.463 38.5361C212.401 39.4737 213.674 40.0003 215 40ZM221 29.75H223.998C224.096 29.7503 224.194 29.7312 224.285 29.6936C224.377 29.6561 224.46 29.6009 224.529 29.5312C224.599 29.4615 224.655 29.3787 224.693 29.2876C224.731 29.1964 224.75 29.0987 224.75 29V26.0025C224.75 25.9036 224.731 25.8056 224.693 25.7141C224.656 25.6227 224.6 25.5396 224.53 25.4697C224.46 25.3997 224.377 25.3443 224.286 25.3066C224.194 25.2689 224.096 25.2497 223.998 25.25H221C220.901 25.2497 220.803 25.2689 220.712 25.3066C220.62 25.3443 220.537 25.3997 220.467 25.4697C220.397 25.5396 220.342 25.6227 220.304 25.7141C220.266 25.8056 220.247 25.9036 220.248 26.0025V29C220.25 29.4125 220.587 29.75 221 29.75ZM215 11C208.635 11 202.53 13.5286 198.029 18.0294C193.529 22.5303 191 28.6348 191 35C191 41.3652 193.529 47.4697 198.029 51.9706C202.53 56.4714 208.635 59 215 59C218.152 59 221.273 58.3792 224.184 57.1731C227.096 55.967 229.742 54.1992 231.971 51.9706C234.199 49.742 235.967 47.0962 237.173 44.1844C238.379 41.2726 239 38.1517 239 35C239 31.8483 238.379 28.7274 237.173 25.8156C235.967 22.9038 234.199 20.258 231.971 18.0294C229.742 15.8008 227.096 14.033 224.184 12.8269C221.273 11.6208 218.152 11 215 11ZM227.5 44.7225C227.5 46.25 226.25 47.5 224.722 47.5H205.278C203.75 47.5 202.5 46.25 202.5 44.7225V25.2775C202.5 23.75 203.75 22.5 205.278 22.5H224.722C226.25 22.5 227.5 23.75 227.5 25.2775V44.7225Z" fill="#FF3A96"/>
    <defs>
    <filter id="filter0_d_1117_2805" x="66" y="10" width="58" height="57" filterUnits="userSpaceOnUse" color-interpolation-filters="sRGB">
    <feFlood flood-opacity="0" result="BackgroundImageFix"/>
    <feColorMatrix in="SourceAlpha" type="matrix" values="0 0 0 0 0 0 0 0 0 0 0 0 0 0 0 0 0 0 127 0" result="hardAlpha"/>
    <feOffset dy="4"/>
    <feGaussianBlur stdDeviation="2"/>
    <feComposite in2="hardAlpha" operator="out"/>
    <feColorMatrix type="matrix" values="0 0 0 0 0 0 0 0 0 0 0 0 0 0 0 0 0 0 0.25 0"/>
    <feBlend mode="normal" in2="BackgroundImageFix" result="effect1_dropShadow_1117_2805"/>
    <feBlend mode="normal" in="SourceGraphic" in2="effect1_dropShadow_1117_2805" result="shape"/>
    </filter>
    </defs>
</svg>