<svg width="70" height="71" viewBox="0 0 70 71" fill="none" xmlns="http://www.w3.org/2000/svg"><path d="M35 4.8125C18.0879 4.8125 4.375 18.5254 4.375 35.4375C4.375 52.3496 18.0879 66.0625 35 66.0625C51.9121 66.0625 65.625 52.3496 65.625 35.4375C65.625 18.5254 51.9121 4.8125 35 4.8125ZM46.416 48.125C43.6406 50.6816 39.8535 52.1855 35.335 52.1855C28.793 52.1855 23.1328 48.4326 20.3779 42.9639C19.2432 40.7012 18.5938 38.1445 18.5938 35.4375C18.5938 32.7305 19.2432 30.1738 20.3779 27.9111C23.1328 22.4355 28.793 18.6826 35.335 18.6826C39.8467 18.6826 43.6338 20.3438 46.5391 23.0439L41.7402 27.8496C40.0039 26.1885 37.7959 25.3477 35.3418 25.3477C30.9805 25.3477 27.2891 28.2939 25.9697 32.252C25.6348 33.2568 25.4434 34.3301 25.4434 35.4375C25.4434 36.5449 25.6348 37.6182 25.9697 38.623C27.2891 42.5811 30.9805 45.5273 35.335 45.5273C37.5908 45.5273 39.5049 44.9326 41.002 43.9277C42.7793 42.7383 43.9551 40.9678 44.3447 38.8691H35.335V32.3887H51.1055C51.3037 33.4893 51.4062 34.6309 51.4062 35.8135C51.4062 40.9199 49.5811 45.2061 46.416 48.125Z" fill="white"/></svg>