<svg width="71" height="70" viewBox="0 0 71 70" fill="none" xmlns="http://www.w3.org/2000/svg">
<path d="M11.108 10.0157L36.5997 35.0144L11.2976 60.2436C10.8837 59.7045 10.5623 59.1003 10.3468 58.4557C10.2353 57.7259 10.2353 56.9834 10.3468 56.2536V13.3203C10.271 12.1682 10.5364 11.0161 11.1051 10.0157M47.581 24.1119L39.2597 32.3544L14.0714 7.58318C14.888 7.30026 15.763 7.22151 16.6176 7.35568C17.9593 7.72318 19.2397 8.28901 20.4151 9.02693L43.2118 21.6415C44.6935 22.4378 46.1372 23.2748 47.581 24.1119ZM39.2626 37.7123L47.543 45.844L41.5405 49.1865L23.2268 59.3657C21.7101 60.2028 20.1876 61.0019 18.706 61.9148C18.072 62.3096 17.361 62.5645 16.6207 62.6625C15.8803 62.7606 15.1275 62.6996 14.4126 62.4836L39.2626 37.7123ZM60.7293 35.0144C60.7506 36.0343 60.4928 37.0406 59.984 37.9248C59.4751 38.8089 58.7344 39.5372 57.8418 40.0311L50.9993 43.8286L41.9955 35.0144L51.0372 26.0486C53.356 27.3407 55.6368 28.6328 57.9147 29.849C58.8232 30.3568 59.5694 31.1113 60.0669 32.0254C60.5645 32.9395 60.796 33.9758 60.7293 35.0144Z" fill="white"/>
</svg>