<?xml version="1.0" encoding="UTF-8"?>
<svg width="824" height="816" viewBox="0 0 824 816" fill="none" xmlns="http://www.w3.org/2000/svg">
  <g id="Logo Icon">
    <path d="M323.399 29.7808C312.166 29.9195 299.838 31.0144 286.625 32.8089C330.995 65.4298 368.861 104.926 395.409 145.211C398.08 145.211 400.739 145.23 403.388 145.286C432.463 145.908 460.5 149.918 489.034 156.761C463.775 111.408 440.858 76.7709 412.669 56.0044C390.433 39.6238 364.287 30.2366 328.145 29.7808C326.589 29.7596 325.006 29.7596 323.399 29.7808ZM175.884 66.3733C174.71 66.3712 173.532 66.3829 172.351 66.4084C149.748 66.9024 125.1 72.6559 96.9359 84.1468C187.351 114.12 269.115 164.58 312.442 217.36C342.018 209.184 359.822 193.9 371.111 171.433C315.18 124.599 270.565 89.5528 226.359 74.8425C209.994 69.3951 193.474 66.3877 175.884 66.3733ZM175.557 150.501C112.115 161.272 55.2885 201.268 34.2185 268.741V782.479H376.581C161.504 705.362 98.4777 329.093 301.138 366.728C310.534 344.154 317.103 322.06 318.87 300.643L348.848 303.069C346.138 335.888 334.641 367.6 319.826 398.603C318.648 401.847 317.457 405.169 316.308 408.266C369.163 544.117 499.407 664.366 589.089 676.33C590.562 676.383 592.155 676.327 593.842 676.187C621.227 677.836 651.554 669.458 677.867 640.64L690.716 626.567L673.861 617.549C663.389 611.947 650.863 606.243 644.624 600.138C641.505 597.084 640.129 594.607 639.677 591.86C639.223 589.111 639.467 585.123 643.266 578.189L660.442 546.862L625.867 556.778C615.721 559.687 598.016 551.946 588.49 539.709C583.727 533.589 581.396 527.107 581.43 522.428C581.462 517.746 582.589 514.26 589.07 509.598L620.377 487.087L581.939 482.752C565.887 480.94 555.593 472.14 551.087 463.158C546.578 454.179 547.366 447.087 553.3 441.945L572.941 424.929L548.224 416.633C537.414 413.006 531.654 404.593 531.556 399.687C531.511 397.499 531.939 395.438 534.522 392.553C552.112 388.744 568.734 391.836 579.726 402.712C589.63 412.507 593.164 426.822 590.954 442.288C604.715 438.696 618.29 439.712 629.76 446.263C644.791 454.848 653.332 471.272 654.979 490.832C679.46 474.684 706.723 470.551 727.822 482.602C752.714 496.818 762.198 529.638 754.868 565.078C793.48 511.919 810.533 444.404 763.908 373.143C688.708 366.064 632.433 324.253 613.764 265.342C605.675 239.816 579.51 219.649 546.17 204.932L546.042 205.278C498.179 188.029 456.601 177.627 413.101 175.422L413.23 175.669C409.538 175.521 405.891 175.414 402.347 175.395C386.998 211.851 356.219 238.986 309.911 248.794L300.406 250.805L294.651 243.053C271.772 212.246 228.296 178.583 175.554 150.498L175.557 150.501ZM426.966 254.509C471.911 254.393 499.185 273.024 494.704 325.351C437.018 330.754 411.124 298.763 393.194 257.407C405.276 255.566 416.592 254.538 426.964 254.511L426.966 254.509ZM504.871 360.275C510.838 360.387 516.362 361.859 520.987 364.757C518.61 366.463 516.372 368.351 514.292 370.403C505.849 378.755 501.277 389.723 501.488 400.273C501.782 415.13 509.969 427.661 521.895 436.229C516.841 449.143 517.948 464.047 524.159 476.423C530.295 488.644 541.122 499.17 555.223 505.745C552.898 511.109 551.401 516.681 551.361 522.208C551.261 535.607 556.8 547.775 564.675 557.892C575.606 571.933 591.812 583.29 609.779 586.436C609.485 589.911 609.451 593.342 609.993 596.647C611.683 606.918 617.26 615.231 623.48 621.319C628.968 626.69 635.051 630.709 640.858 634.058C630.646 641.695 620.879 645.303 610.895 646.473C600.409 633.823 595.268 616.058 595.75 596.343C576.813 606.188 556.787 607.748 540.838 598.638C517.232 585.155 509.628 552.362 519.616 518.425C501.372 522.839 484 519.891 472.643 508.652C458.36 494.523 457.297 470.998 467.663 448.169C461.747 447.189 456.457 444.717 452.334 440.638C438.159 426.617 443.043 399.057 463.239 379.078C475.862 366.591 491.477 360.022 504.874 360.272L504.871 360.275Z" fill="#84E9DD" />
  </g>
</svg>