<svg width="24" height="24" viewBox="0 0 24 24" fill="none" xmlns="http://www.w3.org/2000/svg"><path fill-rule="evenodd" clip-rule="evenodd" d="M10.6838 11.2084C11.3374 11.0974 11.9201 10.7313 12.3038 10.1906C12.6875 9.64995 12.8407 8.97903 12.7298 8.32541L11.7338 2.45641C11.6788 2.13268 11.5606 1.82296 11.3859 1.54492C11.2112 1.26689 10.9834 1.02599 10.7156 0.835995C10.4478 0.645999 10.1452 0.510624 9.82506 0.437601C9.50491 0.364579 9.17352 0.35534 8.84981 0.410412L2.74581 1.44741C2.09221 1.55846 1.50948 1.92457 1.12579 2.46522C0.742104 3.00588 0.588876 3.67679 0.699808 4.33041L1.69581 10.1994C1.75079 10.5231 1.869 10.8329 2.0437 11.1109C2.21841 11.3889 2.44617 11.6298 2.71398 11.8198C2.9818 12.0098 3.28442 12.1452 3.60456 12.2182C3.9247 12.2912 4.25609 12.3005 4.57981 12.2454L10.6838 11.2084ZM5.47981 6.32841C5.47981 6.0006 5.61003 5.68622 5.84182 5.45443C6.07362 5.22263 6.388 5.09241 6.71581 5.09241C7.04362 5.09241 7.358 5.22263 7.58979 5.45443C7.82159 5.68622 7.95181 6.0006 7.95181 6.32841C7.95181 6.65622 7.82159 6.9706 7.58979 7.2024C7.358 7.43419 7.04362 7.56441 6.71581 7.56441C6.388 7.56441 6.07362 7.43419 5.84182 7.2024C5.61003 6.9706 5.47981 6.65622 5.47981 6.32841ZM20.1768 22.3234C19.859 22.9053 19.3232 23.337 18.6871 23.5238C18.051 23.7106 17.3667 23.6371 16.7848 23.3194L11.3508 20.3514C10.769 20.0336 10.3372 19.4978 10.1504 18.8617C9.96361 18.2256 10.0371 17.5413 10.3548 16.9594L13.2078 11.7354C13.5256 11.1536 14.0615 10.7218 14.6976 10.535C15.3337 10.3482 16.0179 10.4217 16.5998 10.7394L22.0348 13.7074C22.6165 14.0254 23.0481 14.5613 23.2346 15.1974C23.4212 15.8335 23.3476 16.5176 23.0298 17.0994L20.1768 22.3234ZM15.9668 13.6774C15.639 13.6774 15.3246 13.8076 15.0928 14.0394C14.861 14.2712 14.7308 14.5856 14.7308 14.9134C14.7308 15.2412 14.861 15.5556 15.0928 15.7874C15.3246 16.0192 15.639 16.1494 15.9668 16.1494C16.2946 16.1494 16.609 16.0192 16.8408 15.7874C17.0726 15.5556 17.2028 15.2412 17.2028 14.9134C17.2028 14.5856 17.0726 14.2712 16.8408 14.0394C16.609 13.8076 16.2946 13.6774 15.9668 13.6774ZM16.1368 18.9474C16.1368 18.6196 16.267 18.3052 16.4988 18.0734C16.7306 17.8416 17.045 17.7114 17.3728 17.7114C17.7006 17.7114 18.015 17.8416 18.2468 18.0734C18.4786 18.3052 18.6088 18.6196 18.6088 18.9474C18.6088 19.2752 18.4786 19.5896 18.2468 19.8214C18.015 20.0532 17.7006 20.1834 17.3728 20.1834C17.045 20.1834 16.7306 20.0532 16.4988 19.8214C16.267 19.5896 16.1368 19.2752 16.1368 18.9474Z" fill="#FF6F61"/></svg>