<svg width="42" height="42" viewBox="0 0 42 42" fill="none" xmlns="http://www.w3.org/2000/svg">
<path d="M28 33.8334L33.8333 28.0001L7 1.16675H1.16667V7.00008L28 33.8334Z" fill="#CCD6DD"/>
<path d="M1.16667 1.16675V7.00008L28 33.8334L30.9167 30.9167L1.16667 1.16675Z" fill="#9AAAB4"/>
<path d="M38.9947 38.276C39.326 37.9447 39.529 37.5457 39.6142 37.1467L33.4985 29.9192L32.6807 29.1002C32.0227 28.4422 30.849 28.5484 30.058 29.3394L29.3417 30.0534C28.5518 30.8432 28.4457 32.0169 29.1037 32.6749L29.9682 33.5394L37.1432 39.6119C37.5457 39.5279 37.9458 39.3237 38.2795 38.9912L38.9947 38.276Z" fill="#D99E82"/>
<path d="M38.9947 38.276C39.326 37.9447 39.529 37.5457 39.6142 37.1467L38.0485 35.2964L37.1887 39.5944C37.5748 39.5045 37.9598 39.3109 38.2795 38.99L38.9947 38.276ZM35.133 31.8524L34.097 37.0335L35.567 38.2772L36.5237 33.4939L35.133 31.8524ZM33.4985 29.9192L32.6807 29.1002C32.5692 28.9927 32.4407 28.9043 32.3003 28.8389L31.1593 34.5462L32.6293 35.7899L33.7458 30.2097L33.4985 29.9192ZM30.6973 28.8832C30.4599 28.9984 30.2437 29.153 30.058 29.3405L29.3417 30.0534C29.0612 30.3319 28.856 30.6772 28.7455 31.0567C28.5798 31.6517 28.6918 32.2642 29.1037 32.6749L29.799 33.3702L30.6973 28.8832ZM30.6973 28.8832C30.6973 28.8816 30.6973 28.8816 30.6973 28.8832Z" fill="#BF6952"/>
<path d="M38.7917 41.9999C40.5636 41.9999 42 40.5635 42 38.7916C42 37.0197 40.5636 35.5833 38.7917 35.5833C37.0198 35.5833 35.5833 37.0197 35.5833 38.7916C35.5833 40.5635 37.0198 41.9999 38.7917 41.9999Z" fill="#8A4633"/>
<path d="M34.5637 26.0446C34.6758 26.1565 34.7647 26.2894 34.8254 26.4358C34.8861 26.5821 34.9173 26.739 34.9173 26.8974C34.9173 27.0558 34.8861 27.2127 34.8254 27.359C34.7647 27.5054 34.6758 27.6383 34.5637 27.7502L27.4563 34.8576C27.3443 34.9696 27.2114 35.0584 27.0651 35.119C26.9187 35.1796 26.7619 35.2108 26.6035 35.2108C26.4451 35.2108 26.2883 35.1796 26.142 35.119C25.9956 35.0584 25.8627 34.9696 25.7507 34.8576C25.6387 34.7456 25.5498 34.6126 25.4892 34.4663C25.4286 34.3199 25.3974 34.1631 25.3974 34.0047C25.3974 33.8463 25.4286 33.6895 25.4892 33.5432C25.5498 33.3968 25.6387 33.2639 25.7507 33.1519L32.858 26.0446C32.9699 25.9324 33.1029 25.8435 33.2492 25.7828C33.3955 25.7222 33.5524 25.6909 33.7108 25.6909C33.8693 25.6909 34.0261 25.7222 34.1725 25.7828C34.3188 25.8435 34.4517 25.9324 34.5637 26.0446Z" fill="#FFAC33"/>
<path d="M25.7507 36.8983C26.8782 36.8983 27.7923 35.9842 27.7923 34.8566C27.7923 33.729 26.8782 32.8149 25.7507 32.8149C24.6231 32.8149 23.709 33.729 23.709 34.8566C23.709 35.9842 24.6231 36.8983 25.7507 36.8983Z" fill="#FFAC33"/>
<path d="M34.5637 28.0853C35.6913 28.0853 36.6053 27.1712 36.6053 26.0436C36.6053 24.916 35.6913 24.002 34.5637 24.002C33.4361 24.002 32.522 24.916 32.522 26.0436C32.522 27.1712 33.4361 28.0853 34.5637 28.0853Z" fill="#FFAC33"/>
<path d="M25.7507 36.0233C26.395 36.0233 26.9173 35.5009 26.9173 34.8566C26.9173 34.2123 26.395 33.6899 25.7507 33.6899C25.1063 33.6899 24.584 34.2123 24.584 34.8566C24.584 35.5009 25.1063 36.0233 25.7507 36.0233Z" fill="#FFCC4D"/>
<path d="M34.5637 27.2103C35.208 27.2103 35.7303 26.688 35.7303 26.0436C35.7303 25.3993 35.208 24.877 34.5637 24.877C33.9193 24.877 33.397 25.3993 33.397 26.0436C33.397 26.688 33.9193 27.2103 34.5637 27.2103Z" fill="#FFCC4D"/>
<path d="M39.5535 34.2323C39.6364 34.3147 39.7022 34.4127 39.7471 34.5206C39.792 34.6285 39.8151 34.7442 39.8151 34.8611C39.8151 34.978 39.792 35.0937 39.7471 35.2016C39.7022 35.3096 39.6364 35.4075 39.5535 35.4899L35.4982 39.5441C35.4156 39.6267 35.3175 39.6922 35.2097 39.7369C35.1018 39.7816 34.9861 39.8046 34.8693 39.8046C34.7525 39.8046 34.6369 39.7816 34.529 39.7369C34.4211 39.6922 34.3231 39.6267 34.2405 39.5441C34.1579 39.4615 34.0924 39.3635 34.0477 39.2556C34.003 39.1477 33.98 39.0321 33.98 38.9153C33.98 38.7985 34.003 38.6828 34.0477 38.575C34.0924 38.4671 34.1579 38.369 34.2405 38.2864L38.2958 34.2323C38.3782 34.1494 38.4762 34.0836 38.5841 34.0387C38.6921 33.9938 38.8078 33.9707 38.9247 33.9707C39.0415 33.9707 39.1573 33.9938 39.2652 34.0387C39.3731 34.0836 39.4711 34.1494 39.5535 34.2323Z" fill="#FFAC33"/>
<path d="M14 33.8334L8.16667 28.0001L35 1.16675H40.8333V7.00008L14 33.8334Z" fill="#CCD6DD"/>
<path d="M40.8333 1.16675V7.00008L14 33.8334L11.0833 30.9167L40.8333 1.16675Z" fill="#9AAAB4"/>
<path d="M3.00533 38.276C2.69435 37.9671 2.47923 37.575 2.38583 37.1467L8.5015 29.9192L9.31933 29.1002C9.97733 28.4422 11.151 28.5484 11.942 29.3394L12.6572 30.0534C13.447 30.8432 13.5532 32.0169 12.8952 32.6749L12.0307 33.5394L4.85567 39.6119C4.42477 39.5194 4.03 39.3038 3.71933 38.9912L3.00533 38.276Z" fill="#D99E82"/>
<path d="M3.00533 38.276C2.69435 37.9671 2.47923 37.575 2.38583 37.1467L3.9515 35.2964L4.81133 39.5944C4.39808 39.4996 4.01996 39.2902 3.7205 38.99L3.00533 38.276ZM6.867 31.8524L7.903 37.0335L6.433 38.2772L5.47633 33.4939L6.867 31.8524ZM8.5015 29.9192L9.31933 29.1002C9.43078 28.9927 9.55931 28.9043 9.69967 28.8389L10.8407 34.5462L9.37067 35.7899L8.25417 30.2097L8.5015 29.9192ZM11.3027 28.8832C11.5302 28.994 11.7483 29.1457 11.942 29.3405L12.6572 30.0545C12.9535 30.3509 13.153 30.7009 13.2533 31.0579C13.419 31.6529 13.307 32.2654 12.8952 32.676L12.1998 33.3714L11.3027 28.8832ZM11.3027 28.8832C11.3027 28.8816 11.3027 28.8816 11.3027 28.8832Z" fill="#BF6952"/>
<path d="M3.20833 41.9999C4.98025 41.9999 6.41667 40.5635 6.41667 38.7916C6.41667 37.0197 4.98025 35.5833 3.20833 35.5833C1.43642 35.5833 0 37.0197 0 38.7916C0 40.5635 1.43642 41.9999 3.20833 41.9999Z" fill="#8A4633"/>
<path d="M7.43634 26.0446C7.32423 26.1565 7.2353 26.2894 7.17462 26.4358C7.11394 26.5821 7.0827 26.739 7.0827 26.8974C7.0827 27.0558 7.11394 27.2127 7.17462 27.359C7.2353 27.5054 7.32423 27.6383 7.43634 27.7502L14.5437 34.8576C14.6557 34.9696 14.7886 35.0584 14.935 35.119C15.0813 35.1796 15.2381 35.2108 15.3965 35.2108C15.5549 35.2108 15.7117 35.1796 15.8581 35.119C16.0044 35.0584 16.1373 34.9696 16.2493 34.8576C16.3613 34.7456 16.4502 34.6126 16.5108 34.4663C16.5714 34.3199 16.6026 34.1631 16.6026 34.0047C16.6026 33.8463 16.5714 33.6895 16.5108 33.5432C16.4502 33.3968 16.3613 33.2639 16.2493 33.1519L9.14201 26.0446C9.03007 25.9324 8.89713 25.8435 8.7508 25.7828C8.60446 25.7222 8.44759 25.6909 8.28917 25.6909C8.13075 25.6909 7.97389 25.7222 7.82755 25.7828C7.68121 25.8435 7.54827 25.9324 7.43634 26.0446Z" fill="#FFAC33"/>
<path d="M16.2493 36.8983C17.3769 36.8983 18.291 35.9842 18.291 34.8566C18.291 33.729 17.3769 32.8149 16.2493 32.8149C15.1218 32.8149 14.2077 33.729 14.2077 34.8566C14.2077 35.9842 15.1218 36.8983 16.2493 36.8983Z" fill="#FFAC33"/>
<path d="M7.43634 28.0853C8.56392 28.0853 9.478 27.1712 9.478 26.0436C9.478 24.916 8.56392 24.002 7.43634 24.002C6.30875 24.002 5.39467 24.916 5.39467 26.0436C5.39467 27.1712 6.30875 28.0853 7.43634 28.0853Z" fill="#FFAC33"/>
<path d="M16.2493 36.0233C16.8937 36.0233 17.416 35.5009 17.416 34.8566C17.416 34.2123 16.8937 33.6899 16.2493 33.6899C15.605 33.6899 15.0827 34.2123 15.0827 34.8566C15.0827 35.5009 15.605 36.0233 16.2493 36.0233Z" fill="#FFCC4D"/>
<path d="M7.43634 27.2103C8.08067 27.2103 8.603 26.688 8.603 26.0436C8.603 25.3993 8.08067 24.877 7.43634 24.877C6.792 24.877 6.26967 25.3993 6.26967 26.0436C6.26967 26.688 6.792 27.2103 7.43634 27.2103Z" fill="#FFCC4D"/>
<path d="M2.44651 34.2323C2.36361 34.3147 2.29783 34.4127 2.25294 34.5206C2.20805 34.6285 2.18494 34.7442 2.18494 34.8611C2.18494 34.978 2.20805 35.0937 2.25294 35.2016C2.29783 35.3096 2.36361 35.4075 2.44651 35.4899L6.50184 39.5441C6.58442 39.6267 6.68245 39.6922 6.79035 39.7369C6.89825 39.7816 7.01389 39.8046 7.13067 39.8046C7.24746 39.8046 7.3631 39.7816 7.47099 39.7369C7.57889 39.6922 7.67693 39.6267 7.75951 39.5441C7.84208 39.4615 7.90759 39.3635 7.95228 39.2556C7.99697 39.1477 8.01998 39.0321 8.01998 38.9153C8.01998 38.7985 7.99697 38.6828 7.95228 38.575C7.90759 38.4671 7.84208 38.369 7.75951 38.2864L3.70417 34.2323C3.62177 34.1494 3.52379 34.0836 3.41587 34.0387C3.30795 33.9938 3.19222 33.9707 3.07534 33.9707C2.95846 33.9707 2.84273 33.9938 2.73481 34.0387C2.62689 34.0836 2.52891 34.1494 2.44651 34.2323Z" fill="#FFAC33"/>
</svg>
