<svg width="36" height="36" viewBox="0 0 36 36" fill="none" xmlns="http://www.w3.org/2000/svg">
<path d="M16.25 0.5V4.1225C13.17 4.51309 10.3071 5.91642 8.11177 8.11177C5.91642 10.3071 4.51309 13.17 4.1225 16.25H0.5V19.75H4.1225C4.51309 22.83 5.91642 25.6929 8.11177 27.8882C10.3071 30.0836 13.17 31.4869 16.25 31.8775V35.5H19.75V31.8775C22.83 31.4869 25.6929 30.0836 27.8882 27.8882C30.0836 25.6929 31.4869 22.83 31.8775 19.75H35.5V16.25H31.8775C31.4869 13.17 30.0836 10.3071 27.8882 8.11177C25.6929 5.91642 22.83 4.51309 19.75 4.1225V0.5M16.25 7.64V11H19.75V7.6575C24.125 8.375 27.625 11.875 28.36 16.25H25V19.75H28.3425C27.625 24.125 24.125 27.625 19.75 28.36V25H16.25V28.3425C11.875 27.625 8.375 24.125 7.64 19.75H11V16.25H7.6575C8.375 11.875 11.875 8.375 16.25 7.64ZM18 16.25C17.5359 16.25 17.0908 16.4344 16.7626 16.7626C16.4344 17.0908 16.25 17.5359 16.25 18C16.25 18.4641 16.4344 18.9092 16.7626 19.2374C17.0908 19.5656 17.5359 19.75 18 19.75C18.4641 19.75 18.9092 19.5656 19.2374 19.2374C19.5656 18.9092 19.75 18.4641 19.75 18C19.75 17.5359 19.5656 17.0908 19.2374 16.7626C18.9092 16.4344 18.4641 16.25 18 16.25Z" fill="#FF383C"/>
</svg>
