<svg width="270" height="280" viewBox="0 0 270 280" fill="none" xmlns="http://www.w3.org/2000/svg"><path d="M106.025 16.2435C102.351 16.2889 98.3194 16.6471 93.9983 17.2343C108.509 27.9081 120.892 40.8316 129.574 54.0132C130.448 54.0132 131.317 54.0195 132.184 54.0378C141.692 54.2411 150.861 55.5532 160.193 57.7925C151.932 42.9525 144.437 31.619 135.219 24.824C127.947 19.4642 119.396 16.3926 107.577 16.2435C107.068 16.2365 106.55 16.2365 106.025 16.2435ZM57.7826 28.2168C57.3987 28.2161 57.0136 28.22 56.6273 28.2283C49.2352 28.39 41.1747 30.2725 31.9641 34.0325C61.5326 43.8401 88.272 60.3509 102.442 77.621C112.114 74.9457 117.936 69.9447 121.628 62.5933C103.337 47.2689 88.7462 35.8014 74.2894 30.988C68.9378 29.2056 63.5352 28.2215 57.7826 28.2168ZM57.6757 55.7441C36.9283 59.2683 18.3441 72.3555 11.4536 94.4332V262.532H123.417C53.0799 237.299 32.4684 114.181 98.7447 126.495C101.817 119.109 103.966 111.88 104.544 104.872L114.347 105.666C113.461 116.404 109.701 126.781 104.856 136.925C104.471 137.986 104.082 139.074 103.706 140.087C120.991 184.538 163.585 223.885 192.914 227.799C193.395 227.817 193.916 227.798 194.468 227.752C203.424 228.292 213.341 225.551 221.947 216.121L226.149 211.516L220.637 208.566C217.212 206.733 213.116 204.866 211.075 202.869C210.055 201.869 209.605 201.059 209.457 200.16C209.309 199.26 209.389 197.956 210.631 195.687L216.248 185.436L204.941 188.681C201.623 189.633 195.833 187.1 192.718 183.096C191.16 181.093 190.398 178.973 190.409 177.441C190.419 175.909 190.788 174.769 192.907 173.243L203.146 165.877L190.575 164.459C185.326 163.866 181.959 160.987 180.486 158.048C179.011 155.11 179.269 152.789 181.209 151.107L187.633 145.539L179.549 142.825C176.014 141.638 174.13 138.885 174.098 137.28C174.084 136.564 174.224 135.889 175.068 134.945C180.821 133.699 186.257 134.711 189.851 138.269C193.09 141.474 194.246 146.158 193.524 151.219C198.024 150.044 202.463 150.376 206.214 152.52C211.13 155.329 213.923 160.703 214.461 167.103C222.468 161.819 231.384 160.467 238.284 164.41C246.424 169.062 249.526 179.801 247.128 191.397C259.756 174.003 265.333 151.912 250.085 128.594C225.492 126.278 207.088 112.597 200.983 93.3209C198.338 84.9687 189.781 78.3698 178.878 73.5544L178.836 73.6676C163.183 68.0235 149.586 64.6198 135.36 63.8986L135.402 63.9794C134.195 63.9309 133.002 63.896 131.843 63.8897C126.824 75.8182 116.758 84.697 101.614 87.9063L98.5052 88.5644L96.6231 86.0279C89.141 75.9475 74.9231 64.9327 57.6747 55.743L57.6757 55.7441ZM139.894 89.7763C154.593 89.7383 163.512 95.8344 162.047 112.956C143.182 114.724 134.714 104.256 128.85 90.7244C132.801 90.1221 136.502 89.7857 139.894 89.7768L139.894 89.7763ZM165.371 124.384C167.323 124.42 169.129 124.902 170.642 125.85C169.865 126.409 169.133 127.026 168.453 127.698C165.691 130.43 164.196 134.019 164.265 137.472C164.361 142.333 167.039 146.433 170.939 149.236C169.286 153.462 169.648 158.339 171.679 162.388C173.686 166.387 177.227 169.831 181.838 171.983C181.078 173.738 180.588 175.561 180.575 177.369C180.543 181.754 182.354 185.735 184.929 189.046C188.504 193.64 193.804 197.356 199.68 198.385C199.584 199.522 199.573 200.645 199.75 201.727C200.303 205.087 202.126 207.807 204.16 209.799C205.955 211.557 207.945 212.872 209.844 213.967C206.504 216.466 203.31 217.647 200.045 218.03C196.616 213.891 194.934 208.078 195.092 201.627C188.899 204.848 182.35 205.359 177.134 202.378C169.414 197.966 166.927 187.236 170.194 176.131C164.227 177.576 158.546 176.611 154.832 172.934C150.161 168.311 149.814 160.613 153.204 153.143C151.269 152.823 149.539 152.014 148.19 150.679C143.555 146.091 145.152 137.074 151.757 130.536C155.885 126.45 160.992 124.301 165.373 124.383L165.371 124.384Z" fill="#84E9DD"/></svg>