<svg width="71" height="70" viewBox="0 0 71 70" fill="none" xmlns="http://www.w3.org/2000/svg"><path d="M35.5002 5.83301C51.6089 5.83301 64.6668 18.8909 64.6668 34.9997C64.6668 51.1084 51.6089 64.1663 35.5002 64.1663C19.3914 64.1663 6.3335 51.1084 6.3335 34.9997C6.3335 18.8909 19.3914 5.83301 35.5002 5.83301ZM26.2339 44.7501C25.0847 43.3579 23.6468 42.863 21.9202 43.2655L21.4827 43.3851L19.7618 46.3484C19.4373 46.8768 19.3298 47.5102 19.4619 48.1161C19.5939 48.7219 19.9553 49.2531 20.4703 49.5985C20.9853 49.9438 21.6139 50.0765 22.2246 49.9686C22.8352 49.8608 23.3804 49.5209 23.746 49.0201L23.9268 48.7488L26.2339 44.7501ZM39.0293 25.258C37.606 26.4363 36.171 29.9159 38.1835 33.3868L47.0502 48.7459C47.3572 49.2677 47.8499 49.6544 48.4297 49.8287C49.0095 50.003 49.6337 49.952 50.1775 49.686C50.7214 49.4199 51.1448 48.9584 51.3631 48.3938C51.5814 47.8291 51.5786 47.2028 51.3552 46.6401L51.2122 46.3484L48.8731 42.2884H52.3439C52.6592 42.2892 52.9716 42.2276 53.263 42.1072C53.5544 41.9868 53.8191 41.81 54.042 41.5869C54.2648 41.3638 54.4413 41.0989 54.5613 40.8073C54.6814 40.5157 54.7426 40.2033 54.7414 39.888C54.7429 39.3031 54.5301 38.738 54.1431 38.2994C53.7562 37.8609 53.2219 37.5793 52.6414 37.508L52.341 37.4905H46.0993L39.7002 26.4159L39.0293 25.258ZM39.8402 16.3797C39.3365 16.0904 38.7451 15.993 38.1753 16.1056C37.6055 16.2182 37.0956 16.5331 36.7397 16.9922L36.5589 17.2605L35.4885 19.1068L34.4414 17.2605C34.1344 16.7387 33.6417 16.352 33.0619 16.1777C32.4821 16.0035 31.8579 16.0544 31.314 16.3205C30.7702 16.5865 30.3468 17.048 30.1285 17.6127C29.9101 18.1774 29.913 18.8037 30.1364 19.3663L30.2793 19.658L32.7235 23.9076L24.8922 37.4788H18.776C18.4609 37.4781 18.1488 37.5396 17.8576 37.6598C17.5664 37.78 17.3018 37.9566 17.079 38.1793C16.8562 38.4021 16.6796 38.6667 16.5594 38.9579C16.4392 39.2492 16.3777 39.5613 16.3785 39.8763C16.3785 41.1043 17.2885 42.1105 18.4756 42.2593L18.776 42.2768H40.5927C41.5843 40.4101 40.4177 37.7588 38.2302 37.4993L37.8772 37.4788H30.431L40.721 19.658C41.0389 19.1065 41.1247 18.4512 40.9595 17.8364C40.7943 17.2216 40.3917 16.6976 39.8402 16.3797Z" fill="#FFEFEF"/></svg>