<svg width="316" height="149" viewBox="0 0 316 149" fill="none" xmlns="http://www.w3.org/2000/svg">
    <g filter="url(#filter0_d_1117_2792)">
    <g clip-path="url(#clip0_1117_2792)">
    <rect x="38" y="13" width="240" height="73" rx="16" fill="white" fill-opacity="0.01" shape-rendering="crispEdges"/>
    <g clip-path="url(#clip1_1117_2792)">
    <path d="M88.0859 48.0555C88.0788 48.0417 88.0669 48.0308 88.0525 48.0249C86.3846 47.2596 84.6245 46.714 82.8162 46.4015C82.7825 46.3952 82.7486 46.4113 82.7321 46.4413C82.4924 46.8763 82.2749 47.3231 82.0802 47.7801C80.131 47.4842 78.1483 47.4842 76.1991 47.7801C76.0032 47.322 75.7821 46.8751 75.5369 46.4413C75.5197 46.412 75.4863 46.3962 75.4528 46.4015C73.6443 46.7133 71.8841 47.259 70.2164 48.0249C70.2021 48.031 70.1901 48.0413 70.1819 48.0545C66.8469 53.0349 65.9333 57.8929 66.3815 62.6907C66.3841 62.7144 66.3961 62.7361 66.415 62.7508C68.3569 64.1887 70.529 65.2862 72.8386 65.9966C72.8719 66.0066 72.9079 65.9948 72.9288 65.967C73.4249 65.2921 73.8644 64.5774 74.2429 63.8302C74.2535 63.8095 74.2546 63.7852 74.2461 63.7636C74.2376 63.7419 74.2202 63.725 74.1984 63.717C73.5053 63.4518 72.8343 63.1321 72.1916 62.7609C72.1679 62.747 72.1527 62.7221 72.1511 62.6947C72.1495 62.6672 72.1616 62.6408 72.1835 62.6241C72.3188 62.5231 72.4516 62.419 72.5821 62.3119C72.6054 62.2927 72.6376 62.2883 72.6652 62.3007C76.8752 64.2221 81.4331 64.2221 85.5933 62.3007C85.621 62.2875 85.6538 62.2915 85.6775 62.3109C85.8081 62.4186 85.9413 62.523 86.077 62.6241C86.099 62.6406 86.1114 62.667 86.11 62.6944C86.1085 62.7219 86.0935 62.7468 86.0699 62.7609C85.4288 63.1352 84.7572 63.4547 84.0622 63.716C84.0404 63.7243 84.0232 63.7415 84.0148 63.7633C84.0065 63.7851 84.0078 63.8094 84.0185 63.8302C84.4034 64.5732 84.8423 65.287 85.3316 65.9659C85.352 65.9944 85.3883 66.0067 85.4219 65.9965C87.7355 65.2885 89.9114 64.1909 91.8558 62.7508C91.875 62.7369 91.8872 62.7153 91.8893 62.6917C92.4258 57.1449 90.991 52.3268 88.0859 48.0555ZM74.8717 59.7693C73.6042 59.7693 72.5598 58.6061 72.5598 57.1776C72.5598 55.7491 73.5839 54.5858 74.8717 54.5858C76.1695 54.5858 77.2038 55.7592 77.1836 57.1775C77.1836 58.6061 76.1594 59.7693 74.8717 59.7693ZM83.4196 59.7693C82.1521 59.7693 81.1077 58.6061 81.1077 57.1776C81.1077 55.7491 82.1318 54.5858 83.4196 54.5858C84.7175 54.5858 85.7517 55.7592 85.7315 57.1775C85.7315 58.6061 84.7175 59.7693 83.4196 59.7693Z" fill="#818CF8"/>
    </g>
    <path d="M119.332 62.0947V55.0469H120.645V62.0947C120.645 62.751 120.51 63.3047 120.241 63.7559C119.972 64.207 119.601 64.5511 119.127 64.7881C118.658 65.0205 118.118 65.1367 117.507 65.1367C116.896 65.1367 116.354 65.0319 115.88 64.8223C115.406 64.6126 115.035 64.2936 114.766 63.8652C114.497 63.4368 114.362 62.8968 114.362 62.2451H115.682C115.682 62.6644 115.759 63.0085 115.914 63.2773C116.069 63.5462 116.283 63.7445 116.557 63.8721C116.835 63.9997 117.151 64.0635 117.507 64.0635C117.853 64.0635 118.163 63.9906 118.437 63.8447C118.715 63.6943 118.933 63.4733 119.093 63.1816C119.252 62.8854 119.332 62.5231 119.332 62.0947ZM122.354 61.3838V61.2266C122.354 60.6934 122.431 60.1989 122.586 59.7432C122.741 59.2829 122.964 58.8841 123.256 58.5469C123.548 58.2051 123.901 57.9408 124.315 57.7539C124.73 57.5625 125.195 57.4668 125.71 57.4668C126.229 57.4668 126.697 57.5625 127.111 57.7539C127.531 57.9408 127.886 58.2051 128.178 58.5469C128.474 58.8841 128.7 59.2829 128.854 59.7432C129.009 60.1989 129.087 60.6934 129.087 61.2266V61.3838C129.087 61.917 129.009 62.4115 128.854 62.8672C128.7 63.3229 128.474 63.7217 128.178 64.0635C127.886 64.4007 127.533 64.665 127.118 64.8564C126.708 65.0433 126.243 65.1367 125.724 65.1367C125.204 65.1367 124.737 65.0433 124.322 64.8564C123.908 64.665 123.552 64.4007 123.256 64.0635C122.964 63.7217 122.741 63.3229 122.586 62.8672C122.431 62.4115 122.354 61.917 122.354 61.3838ZM123.618 61.2266V61.3838C123.618 61.7529 123.661 62.1016 123.748 62.4297C123.835 62.7533 123.965 63.0404 124.138 63.291C124.315 63.5417 124.536 63.7399 124.801 63.8857C125.065 64.027 125.373 64.0977 125.724 64.0977C126.07 64.0977 126.373 64.027 126.633 63.8857C126.897 63.7399 127.116 63.5417 127.289 63.291C127.462 63.0404 127.592 62.7533 127.679 62.4297C127.77 62.1016 127.815 61.7529 127.815 61.3838V61.2266C127.815 60.862 127.77 60.5179 127.679 60.1943C127.592 59.8662 127.46 59.5768 127.282 59.3262C127.109 59.071 126.89 58.8704 126.626 58.7246C126.366 58.5788 126.061 58.5059 125.71 58.5059C125.364 58.5059 125.058 58.5788 124.794 58.7246C124.534 58.8704 124.315 59.071 124.138 59.3262C123.965 59.5768 123.835 59.8662 123.748 60.1943C123.661 60.5179 123.618 60.862 123.618 61.2266ZM132.047 57.6035V65H130.775V57.6035H132.047ZM130.68 55.6416C130.68 55.4365 130.741 55.2633 130.864 55.1221C130.992 54.9808 131.179 54.9102 131.425 54.9102C131.666 54.9102 131.851 54.9808 131.979 55.1221C132.111 55.2633 132.177 55.4365 132.177 55.6416C132.177 55.8376 132.111 56.0062 131.979 56.1475C131.851 56.2842 131.666 56.3525 131.425 56.3525C131.179 56.3525 130.992 56.2842 130.864 56.1475C130.741 56.0062 130.68 55.8376 130.68 55.6416ZM135.342 59.1826V65H134.077V57.6035H135.273L135.342 59.1826ZM135.041 61.0215L134.515 61.001C134.519 60.4951 134.594 60.028 134.74 59.5996C134.886 59.1667 135.091 58.7907 135.355 58.4717C135.62 58.1527 135.934 57.9066 136.299 57.7334C136.668 57.5557 137.076 57.4668 137.522 57.4668C137.887 57.4668 138.215 57.5169 138.507 57.6172C138.799 57.7129 139.047 57.8678 139.252 58.082C139.462 58.2962 139.621 58.5742 139.73 58.916C139.84 59.2533 139.895 59.6657 139.895 60.1533V65H138.623V60.1396C138.623 59.7523 138.566 59.4424 138.452 59.21C138.338 58.973 138.172 58.8021 137.953 58.6973C137.734 58.5879 137.465 58.5332 137.146 58.5332C136.832 58.5332 136.545 58.5993 136.285 58.7314C136.03 58.8636 135.809 59.0459 135.622 59.2783C135.44 59.5107 135.296 59.7773 135.191 60.0781C135.091 60.3743 135.041 60.6888 135.041 61.0215ZM148.248 64.0977C148.549 64.0977 148.827 64.0361 149.082 63.9131C149.337 63.79 149.547 63.6214 149.711 63.4072C149.875 63.1885 149.968 62.9401 149.991 62.6621H151.194C151.172 63.0996 151.023 63.5075 150.75 63.8857C150.481 64.2594 150.128 64.5625 149.69 64.7949C149.253 65.0228 148.772 65.1367 148.248 65.1367C147.692 65.1367 147.207 65.0387 146.792 64.8428C146.382 64.6468 146.04 64.3779 145.767 64.0361C145.498 63.6943 145.295 63.3024 145.158 62.8604C145.026 62.4137 144.96 61.9421 144.96 61.4453V61.1582C144.96 60.6615 145.026 60.1921 145.158 59.75C145.295 59.3034 145.498 58.9092 145.767 58.5674C146.04 58.2256 146.382 57.9567 146.792 57.7607C147.207 57.5648 147.692 57.4668 148.248 57.4668C148.827 57.4668 149.333 57.5853 149.766 57.8223C150.199 58.0547 150.538 58.3737 150.784 58.7793C151.035 59.1803 151.172 59.6361 151.194 60.1465H149.991C149.968 59.8411 149.882 59.5654 149.731 59.3193C149.586 59.0732 149.385 58.8773 149.13 58.7314C148.879 58.5811 148.585 58.5059 148.248 58.5059C147.861 58.5059 147.535 58.5833 147.271 58.7383C147.011 58.8887 146.803 59.0938 146.648 59.3535C146.498 59.6087 146.389 59.8936 146.32 60.208C146.257 60.5179 146.225 60.8346 146.225 61.1582V61.4453C146.225 61.7689 146.257 62.0879 146.32 62.4023C146.384 62.7168 146.491 63.0016 146.642 63.2568C146.797 63.512 147.004 63.7171 147.264 63.8721C147.528 64.0225 147.856 64.0977 148.248 64.0977ZM152.281 61.3838V61.2266C152.281 60.6934 152.359 60.1989 152.514 59.7432C152.669 59.2829 152.892 58.8841 153.184 58.5469C153.475 58.2051 153.828 57.9408 154.243 57.7539C154.658 57.5625 155.123 57.4668 155.638 57.4668C156.157 57.4668 156.624 57.5625 157.039 57.7539C157.458 57.9408 157.814 58.2051 158.105 58.5469C158.402 58.8841 158.627 59.2829 158.782 59.7432C158.937 60.1989 159.015 60.6934 159.015 61.2266V61.3838C159.015 61.917 158.937 62.4115 158.782 62.8672C158.627 63.3229 158.402 63.7217 158.105 64.0635C157.814 64.4007 157.461 64.665 157.046 64.8564C156.636 65.0433 156.171 65.1367 155.651 65.1367C155.132 65.1367 154.665 65.0433 154.25 64.8564C153.835 64.665 153.48 64.4007 153.184 64.0635C152.892 63.7217 152.669 63.3229 152.514 62.8672C152.359 62.4115 152.281 61.917 152.281 61.3838ZM153.546 61.2266V61.3838C153.546 61.7529 153.589 62.1016 153.676 62.4297C153.762 62.7533 153.892 63.0404 154.065 63.291C154.243 63.5417 154.464 63.7399 154.729 63.8857C154.993 64.027 155.3 64.0977 155.651 64.0977C155.998 64.0977 156.301 64.027 156.561 63.8857C156.825 63.7399 157.044 63.5417 157.217 63.291C157.39 63.0404 157.52 62.7533 157.606 62.4297C157.698 62.1016 157.743 61.7529 157.743 61.3838V61.2266C157.743 60.862 157.698 60.5179 157.606 60.1943C157.52 59.8662 157.388 59.5768 157.21 59.3262C157.037 59.071 156.818 58.8704 156.554 58.7246C156.294 58.5788 155.989 58.5059 155.638 58.5059C155.291 58.5059 154.986 58.5788 154.722 58.7246C154.462 58.8704 154.243 59.071 154.065 59.3262C153.892 59.5768 153.762 59.8662 153.676 60.1943C153.589 60.5179 153.546 60.862 153.546 61.2266ZM161.858 59.0732V65H160.587V57.6035H161.79L161.858 59.0732ZM161.599 61.0215L161.011 61.001C161.015 60.4951 161.081 60.028 161.209 59.5996C161.337 59.1667 161.526 58.7907 161.776 58.4717C162.027 58.1527 162.339 57.9066 162.713 57.7334C163.087 57.5557 163.52 57.4668 164.012 57.4668C164.358 57.4668 164.677 57.5169 164.969 57.6172C165.26 57.7129 165.513 57.8656 165.728 58.0752C165.942 58.2848 166.108 58.5537 166.227 58.8818C166.345 59.21 166.404 59.6064 166.404 60.0713V65H165.14V60.1328C165.14 59.7454 165.074 59.4355 164.941 59.2031C164.814 58.9707 164.632 58.8021 164.395 58.6973C164.158 58.5879 163.88 58.5332 163.561 58.5332C163.187 58.5332 162.875 58.5993 162.624 58.7314C162.373 58.8636 162.173 59.0459 162.022 59.2783C161.872 59.5107 161.763 59.7773 161.694 60.0781C161.631 60.3743 161.599 60.6888 161.599 61.0215ZM166.391 60.3242L165.543 60.584C165.548 60.1784 165.614 59.7887 165.741 59.415C165.873 59.0413 166.062 58.7087 166.309 58.417C166.559 58.1253 166.867 57.8952 167.231 57.7266C167.596 57.5534 168.013 57.4668 168.482 57.4668C168.879 57.4668 169.23 57.5192 169.535 57.624C169.845 57.7288 170.105 57.8906 170.314 58.1094C170.529 58.3236 170.69 58.5993 170.8 58.9365C170.909 59.2738 170.964 59.6748 170.964 60.1396V65H169.692V60.126C169.692 59.7113 169.626 59.39 169.494 59.1621C169.367 58.9297 169.184 58.7679 168.947 58.6768C168.715 58.5811 168.437 58.5332 168.113 58.5332C167.835 58.5332 167.589 58.5811 167.375 58.6768C167.161 58.7725 166.981 58.9046 166.835 59.0732C166.689 59.2373 166.577 59.4264 166.5 59.6406C166.427 59.8548 166.391 60.0827 166.391 60.3242ZM174.136 59.0732V65H172.864V57.6035H174.067L174.136 59.0732ZM173.876 61.0215L173.288 61.001C173.293 60.4951 173.359 60.028 173.486 59.5996C173.614 59.1667 173.803 58.7907 174.054 58.4717C174.304 58.1527 174.617 57.9066 174.99 57.7334C175.364 57.5557 175.797 57.4668 176.289 57.4668C176.635 57.4668 176.954 57.5169 177.246 57.6172C177.538 57.7129 177.791 57.8656 178.005 58.0752C178.219 58.2848 178.385 58.5537 178.504 58.8818C178.622 59.21 178.682 59.6064 178.682 60.0713V65H177.417V60.1328C177.417 59.7454 177.351 59.4355 177.219 59.2031C177.091 58.9707 176.909 58.8021 176.672 58.6973C176.435 58.5879 176.157 58.5332 175.838 58.5332C175.464 58.5332 175.152 58.5993 174.901 58.7314C174.651 58.8636 174.45 59.0459 174.3 59.2783C174.149 59.5107 174.04 59.7773 173.972 60.0781C173.908 60.3743 173.876 60.6888 173.876 61.0215ZM178.668 60.3242L177.82 60.584C177.825 60.1784 177.891 59.7887 178.019 59.415C178.151 59.0413 178.34 58.7087 178.586 58.417C178.837 58.1253 179.144 57.8952 179.509 57.7266C179.873 57.5534 180.29 57.4668 180.76 57.4668C181.156 57.4668 181.507 57.5192 181.812 57.624C182.122 57.7288 182.382 57.8906 182.592 58.1094C182.806 58.3236 182.968 58.5993 183.077 58.9365C183.187 59.2738 183.241 59.6748 183.241 60.1396V65H181.97V60.126C181.97 59.7113 181.904 59.39 181.771 59.1621C181.644 58.9297 181.462 58.7679 181.225 58.6768C180.992 58.5811 180.714 58.5332 180.391 58.5332C180.113 58.5332 179.867 58.5811 179.652 58.6768C179.438 58.7725 179.258 58.9046 179.112 59.0732C178.966 59.2373 178.855 59.4264 178.777 59.6406C178.704 59.8548 178.668 60.0827 178.668 60.3242ZM189.681 63.291V57.6035H190.952V65H189.742L189.681 63.291ZM189.92 61.7324L190.446 61.7188C190.446 62.2109 190.394 62.6667 190.289 63.0859C190.189 63.5007 190.025 63.8607 189.797 64.166C189.569 64.4714 189.271 64.7106 188.901 64.8838C188.532 65.0524 188.083 65.1367 187.555 65.1367C187.195 65.1367 186.864 65.0843 186.563 64.9795C186.267 64.8747 186.012 64.7129 185.798 64.4941C185.584 64.2754 185.417 63.9906 185.299 63.6396C185.185 63.2887 185.128 62.8672 185.128 62.375V57.6035H186.393V62.3887C186.393 62.7214 186.429 62.9971 186.502 63.2158C186.579 63.43 186.682 63.6009 186.81 63.7285C186.942 63.8516 187.088 63.9382 187.247 63.9883C187.411 64.0384 187.58 64.0635 187.753 64.0635C188.291 64.0635 188.717 63.9609 189.031 63.7559C189.346 63.5462 189.571 63.266 189.708 62.915C189.849 62.5596 189.92 62.1654 189.92 61.7324ZM194.145 59.1826V65H192.88V57.6035H194.076L194.145 59.1826ZM193.844 61.0215L193.317 61.001C193.322 60.4951 193.397 60.028 193.543 59.5996C193.689 59.1667 193.894 58.7907 194.158 58.4717C194.423 58.1527 194.737 57.9066 195.102 57.7334C195.471 57.5557 195.879 57.4668 196.325 57.4668C196.69 57.4668 197.018 57.5169 197.31 57.6172C197.601 57.7129 197.85 57.8678 198.055 58.082C198.264 58.2962 198.424 58.5742 198.533 58.916C198.643 59.2533 198.697 59.6657 198.697 60.1533V65H197.426V60.1396C197.426 59.7523 197.369 59.4424 197.255 59.21C197.141 58.973 196.975 58.8021 196.756 58.6973C196.537 58.5879 196.268 58.5332 195.949 58.5332C195.635 58.5332 195.348 58.5993 195.088 58.7314C194.833 58.8636 194.612 59.0459 194.425 59.2783C194.243 59.5107 194.099 59.7773 193.994 60.0781C193.894 60.3743 193.844 60.6888 193.844 61.0215ZM201.992 57.6035V65H200.721V57.6035H201.992ZM200.625 55.6416C200.625 55.4365 200.687 55.2633 200.81 55.1221C200.937 54.9808 201.124 54.9102 201.37 54.9102C201.612 54.9102 201.796 54.9808 201.924 55.1221C202.056 55.2633 202.122 55.4365 202.122 55.6416C202.122 55.8376 202.056 56.0062 201.924 56.1475C201.796 56.2842 201.612 56.3525 201.37 56.3525C201.124 56.3525 200.937 56.2842 200.81 56.1475C200.687 56.0062 200.625 55.8376 200.625 55.6416ZM207.119 57.6035V58.5742H203.12V57.6035H207.119ZM204.474 55.8057H205.738V63.168C205.738 63.4186 205.777 63.6077 205.854 63.7354C205.932 63.863 206.032 63.9473 206.155 63.9883C206.278 64.0293 206.41 64.0498 206.552 64.0498C206.657 64.0498 206.766 64.0407 206.88 64.0225C206.998 63.9997 207.087 63.9814 207.146 63.9678L207.153 65C207.053 65.0319 206.921 65.0615 206.757 65.0889C206.597 65.1208 206.404 65.1367 206.176 65.1367C205.866 65.1367 205.581 65.0752 205.321 64.9521C205.062 64.8291 204.854 64.624 204.699 64.3369C204.549 64.0452 204.474 63.6533 204.474 63.1611V55.8057ZM210.681 64.2344L212.738 57.6035H214.092L211.125 66.1416C211.057 66.3239 210.965 66.5199 210.852 66.7295C210.742 66.9437 210.601 67.1465 210.428 67.3379C210.255 67.5293 210.045 67.6842 209.799 67.8027C209.557 67.9258 209.268 67.9873 208.931 67.9873C208.83 67.9873 208.703 67.9736 208.548 67.9463C208.393 67.9189 208.284 67.8962 208.22 67.8779L208.213 66.8525C208.249 66.8571 208.306 66.8617 208.384 66.8662C208.466 66.8753 208.523 66.8799 208.555 66.8799C208.842 66.8799 209.086 66.8411 209.286 66.7637C209.487 66.6908 209.655 66.5654 209.792 66.3877C209.933 66.2145 210.054 65.9753 210.154 65.6699L210.681 64.2344ZM209.17 57.6035L211.091 63.3457L211.419 64.6787L210.51 65.1436L207.789 57.6035H209.17Z" fill="#A5B4FC" fill-opacity="0.6"/>
    <path d="M129.071 37H126.285L126.303 34.9434H129.071C129.763 34.9434 130.346 34.7881 130.82 34.4775C131.295 34.1611 131.652 33.7012 131.893 33.0977C132.139 32.4941 132.262 31.7646 132.262 30.9092V30.2852C132.262 29.6289 132.191 29.0518 132.051 28.5537C131.916 28.0557 131.714 27.6367 131.444 27.2969C131.175 26.957 130.844 26.7021 130.451 26.5322C130.059 26.3564 129.607 26.2686 129.098 26.2686H126.232V24.2031H129.098C129.953 24.2031 130.735 24.3496 131.444 24.6426C132.159 24.9297 132.777 25.3428 133.299 25.8818C133.82 26.4209 134.222 27.0654 134.503 27.8154C134.79 28.5596 134.934 29.3887 134.934 30.3027V30.9092C134.934 31.8174 134.79 32.6465 134.503 33.3965C134.222 34.1465 133.82 34.791 133.299 35.3301C132.783 35.8633 132.165 36.2764 131.444 36.5693C130.729 36.8564 129.938 37 129.071 37ZM127.779 24.2031V37H125.143V24.2031H127.779ZM139.363 27.4902V37H136.823V27.4902H139.363ZM136.665 25.0117C136.665 24.6426 136.794 24.3379 137.052 24.0977C137.31 23.8574 137.655 23.7373 138.089 23.7373C138.517 23.7373 138.859 23.8574 139.117 24.0977C139.381 24.3379 139.513 24.6426 139.513 25.0117C139.513 25.3809 139.381 25.6855 139.117 25.9258C138.859 26.166 138.517 26.2861 138.089 26.2861C137.655 26.2861 137.31 26.166 137.052 25.9258C136.794 25.6855 136.665 25.3809 136.665 25.0117ZM146.597 34.3721C146.597 34.1904 146.544 34.0264 146.438 33.8799C146.333 33.7334 146.137 33.5986 145.85 33.4756C145.568 33.3467 145.161 33.2295 144.628 33.124C144.147 33.0186 143.699 32.8867 143.283 32.7285C142.873 32.5645 142.516 32.3682 142.211 32.1396C141.912 31.9111 141.678 31.6416 141.508 31.3311C141.338 31.0146 141.253 30.6543 141.253 30.25C141.253 29.8516 141.338 29.4766 141.508 29.125C141.684 28.7734 141.933 28.4629 142.255 28.1934C142.583 27.918 142.981 27.7041 143.45 27.5518C143.925 27.3936 144.458 27.3145 145.05 27.3145C145.876 27.3145 146.585 27.4463 147.177 27.71C147.774 27.9736 148.231 28.3369 148.548 28.7998C148.87 29.2568 149.031 29.7783 149.031 30.3643H146.5C146.5 30.1182 146.447 29.8984 146.342 29.7051C146.242 29.5059 146.084 29.3506 145.867 29.2393C145.656 29.1221 145.381 29.0635 145.041 29.0635C144.76 29.0635 144.517 29.1133 144.312 29.2129C144.106 29.3066 143.948 29.4355 143.837 29.5996C143.731 29.7578 143.679 29.9336 143.679 30.127C143.679 30.2734 143.708 30.4053 143.767 30.5225C143.831 30.6338 143.934 30.7363 144.074 30.8301C144.215 30.9238 144.396 31.0117 144.619 31.0938C144.848 31.1699 145.129 31.2402 145.463 31.3047C146.148 31.4453 146.761 31.6299 147.3 31.8584C147.839 32.0811 148.267 32.3857 148.583 32.7725C148.899 33.1533 149.058 33.6543 149.058 34.2754C149.058 34.6973 148.964 35.084 148.776 35.4355C148.589 35.7871 148.319 36.0947 147.968 36.3584C147.616 36.6162 147.194 36.8184 146.702 36.9648C146.216 37.1055 145.668 37.1758 145.059 37.1758C144.174 37.1758 143.424 37.0176 142.809 36.7012C142.199 36.3848 141.736 35.9834 141.42 35.4971C141.109 35.0049 140.954 34.501 140.954 33.9854H143.354C143.365 34.3311 143.453 34.6094 143.617 34.8203C143.787 35.0312 144.001 35.1836 144.259 35.2773C144.522 35.3711 144.807 35.418 145.111 35.418C145.439 35.418 145.712 35.374 145.929 35.2861C146.146 35.1924 146.31 35.0693 146.421 34.917C146.538 34.7588 146.597 34.5771 146.597 34.3721ZM154.63 35.1982C154.94 35.1982 155.216 35.1396 155.456 35.0225C155.696 34.8994 155.884 34.7295 156.019 34.5127C156.159 34.29 156.232 34.0293 156.238 33.7305H158.62C158.614 34.3984 158.436 34.9932 158.084 35.5146C157.732 36.0303 157.261 36.4375 156.669 36.7363C156.077 37.0293 155.415 37.1758 154.683 37.1758C153.944 37.1758 153.3 37.0527 152.749 36.8066C152.204 36.5605 151.75 36.2207 151.387 35.7871C151.023 35.3477 150.751 34.8379 150.569 34.2578C150.388 33.6719 150.297 33.0449 150.297 32.377V32.1221C150.297 31.4482 150.388 30.8213 150.569 30.2412C150.751 29.6553 151.023 29.1455 151.387 28.7119C151.75 28.2725 152.204 27.9297 152.749 27.6836C153.294 27.4375 153.933 27.3145 154.665 27.3145C155.444 27.3145 156.127 27.4639 156.713 27.7627C157.305 28.0615 157.768 28.4893 158.102 29.0459C158.441 29.5967 158.614 30.25 158.62 31.0059H156.238C156.232 30.6895 156.165 30.4023 156.036 30.1445C155.913 29.8867 155.731 29.6816 155.491 29.5293C155.257 29.3711 154.967 29.292 154.621 29.292C154.252 29.292 153.95 29.3711 153.716 29.5293C153.481 29.6816 153.3 29.8926 153.171 30.1621C153.042 30.4258 152.951 30.7275 152.898 31.0674C152.852 31.4014 152.828 31.7529 152.828 32.1221V32.377C152.828 32.7461 152.852 33.1006 152.898 33.4404C152.945 33.7803 153.033 34.082 153.162 34.3457C153.297 34.6094 153.481 34.8174 153.716 34.9697C153.95 35.1221 154.255 35.1982 154.63 35.1982ZM159.684 32.3418V32.1572C159.684 31.46 159.783 30.8184 159.982 30.2324C160.182 29.6406 160.472 29.1279 160.853 28.6943C161.233 28.2607 161.702 27.9238 162.259 27.6836C162.815 27.4375 163.454 27.3145 164.175 27.3145C164.896 27.3145 165.537 27.4375 166.1 27.6836C166.662 27.9238 167.134 28.2607 167.515 28.6943C167.901 29.1279 168.194 29.6406 168.394 30.2324C168.593 30.8184 168.692 31.46 168.692 32.1572V32.3418C168.692 33.0332 168.593 33.6748 168.394 34.2666C168.194 34.8525 167.901 35.3652 167.515 35.8047C167.134 36.2383 166.665 36.5752 166.108 36.8154C165.552 37.0557 164.913 37.1758 164.192 37.1758C163.472 37.1758 162.83 37.0557 162.268 36.8154C161.711 36.5752 161.239 36.2383 160.853 35.8047C160.472 35.3652 160.182 34.8525 159.982 34.2666C159.783 33.6748 159.684 33.0332 159.684 32.3418ZM162.215 32.1572V32.3418C162.215 32.7402 162.25 33.1123 162.32 33.458C162.391 33.8037 162.502 34.1084 162.654 34.3721C162.812 34.6299 163.018 34.832 163.27 34.9785C163.521 35.125 163.829 35.1982 164.192 35.1982C164.544 35.1982 164.846 35.125 165.098 34.9785C165.35 34.832 165.552 34.6299 165.704 34.3721C165.856 34.1084 165.968 33.8037 166.038 33.458C166.114 33.1123 166.152 32.7402 166.152 32.3418V32.1572C166.152 31.7705 166.114 31.4072 166.038 31.0674C165.968 30.7217 165.854 30.417 165.695 30.1533C165.543 29.8838 165.341 29.6729 165.089 29.5205C164.837 29.3682 164.532 29.292 164.175 29.292C163.817 29.292 163.513 29.3682 163.261 29.5205C163.015 29.6729 162.812 29.8838 162.654 30.1533C162.502 30.417 162.391 30.7217 162.32 31.0674C162.25 31.4072 162.215 31.7705 162.215 32.1572ZM172.779 29.5645V37H170.248V27.4902H172.63L172.779 29.5645ZM175.645 27.4287L175.601 29.7754C175.478 29.7578 175.328 29.7432 175.152 29.7314C174.982 29.7139 174.827 29.7051 174.687 29.7051C174.329 29.7051 174.019 29.752 173.755 29.8457C173.497 29.9336 173.28 30.0654 173.104 30.2412C172.935 30.417 172.806 30.6309 172.718 30.8828C172.636 31.1348 172.589 31.4219 172.577 31.7441L172.067 31.5859C172.067 30.9707 172.129 30.4053 172.252 29.8896C172.375 29.3682 172.554 28.9141 172.788 28.5273C173.028 28.1406 173.321 27.8418 173.667 27.6309C174.013 27.4199 174.408 27.3145 174.854 27.3145C174.994 27.3145 175.138 27.3262 175.284 27.3496C175.431 27.3672 175.551 27.3936 175.645 27.4287ZM182.28 34.9258V23.5H184.829V37H182.535L182.28 34.9258ZM176.269 32.3594V32.1748C176.269 31.4482 176.351 30.7891 176.515 30.1973C176.679 29.5996 176.919 29.0869 177.235 28.6592C177.552 28.2314 177.941 27.9004 178.404 27.666C178.867 27.4316 179.395 27.3145 179.986 27.3145C180.543 27.3145 181.029 27.4316 181.445 27.666C181.867 27.9004 182.225 28.2344 182.518 28.668C182.816 29.0957 183.057 29.6025 183.238 30.1885C183.42 30.7686 183.552 31.4043 183.634 32.0957V32.5C183.552 33.1621 183.42 33.7773 183.238 34.3457C183.057 34.9141 182.816 35.4121 182.518 35.8398C182.225 36.2617 181.867 36.5898 181.445 36.8242C181.023 37.0586 180.531 37.1758 179.969 37.1758C179.377 37.1758 178.85 37.0557 178.387 36.8154C177.93 36.5752 177.543 36.2383 177.227 35.8047C176.916 35.3711 176.679 34.8613 176.515 34.2754C176.351 33.6895 176.269 33.0508 176.269 32.3594ZM178.8 32.1748V32.3594C178.8 32.752 178.829 33.1182 178.888 33.458C178.952 33.7979 179.055 34.0996 179.195 34.3633C179.342 34.6211 179.529 34.8232 179.758 34.9697C179.992 35.1104 180.276 35.1807 180.61 35.1807C181.044 35.1807 181.401 35.084 181.683 34.8906C181.964 34.6914 182.178 34.4189 182.324 34.0732C182.477 33.7275 182.564 33.3291 182.588 32.8779V31.7266C182.57 31.3574 182.518 31.0264 182.43 30.7334C182.348 30.4346 182.225 30.1797 182.061 29.9688C181.902 29.7578 181.703 29.5938 181.463 29.4766C181.229 29.3594 180.95 29.3008 180.628 29.3008C180.3 29.3008 180.019 29.377 179.784 29.5293C179.55 29.6758 179.359 29.8779 179.213 30.1357C179.072 30.3936 178.967 30.6982 178.896 31.0498C178.832 31.3955 178.8 31.7705 178.8 32.1748Z" fill="#818CF8"/>
    <g opacity="0.4">
    <g clip-path="url(#clip2_1117_2792)">
    <path d="M253.5 47.1667L259.333 53L253.5 58.8333" stroke="#818CF8" stroke-width="1.66667" stroke-linecap="round" stroke-linejoin="round"/>
    </g>
    </g>
    </g>
    <rect x="39" y="14" width="238" height="71" rx="15" stroke="#6366F1" stroke-opacity="0.3" stroke-width="2" shape-rendering="crispEdges"/>
    </g>
    <defs>
    <filter id="filter0_d_1117_2792" x="0" y="0" width="316" height="149" filterUnits="userSpaceOnUse" color-interpolation-filters="sRGB">
    <feFlood flood-opacity="0" result="BackgroundImageFix"/>
    <feColorMatrix in="SourceAlpha" type="matrix" values="0 0 0 0 0 0 0 0 0 0 0 0 0 0 0 0 0 0 127 0" result="hardAlpha"/>
    <feMorphology radius="12" operator="erode" in="SourceAlpha" result="effect1_dropShadow_1117_2792"/>
    <feOffset dy="25"/>
    <feGaussianBlur stdDeviation="25"/>
    <feComposite in2="hardAlpha" operator="out"/>
    <feColorMatrix type="matrix" values="0 0 0 0 0 0 0 0 0 0 0 0 0 0 0 0 0 0 0.25 0"/>
    <feBlend mode="normal" in2="BackgroundImageFix" result="effect1_dropShadow_1117_2792"/>
    <feBlend mode="normal" in="SourceGraphic" in2="effect1_dropShadow_1117_2792" result="shape"/>
    </filter>
    <clipPath id="clip0_1117_2792">
    <rect x="38" y="13" width="240" height="73" rx="16" fill="white"/>
    </clipPath>
    <clipPath id="clip1_1117_2792">
    <rect width="28" height="28" fill="white" transform="translate(64 38)"/>
    </clipPath>
    <clipPath id="clip2_1117_2792">
    <rect width="20" height="20" fill="white" transform="translate(246 43)"/>
    </clipPath>
    </defs>
</svg>
