<svg width="50" height="49" viewBox="0 0 50 49" fill="none" xmlns="http://www.w3.org/2000/svg">
<path d="M25 1C11.745 1 1 11.745 1 25C1 38.255 11.745 49 25 49C38.255 49 49 38.255 49 25C49 11.745 38.255 1 25 1ZM34.7625 20.66C34.7708 20.865 34.775 21.0683 34.775 21.27C34.775 27.52 30.0225 34.7225 21.3275 34.7225C18.7583 34.7261 16.2427 33.9882 14.0825 32.5975C14.4508 32.6408 14.8267 32.6617 15.21 32.66C17.425 32.66 19.4625 31.9075 21.08 30.6375C20.0943 30.6181 19.1392 30.2917 18.3478 29.7038C17.5564 29.1158 16.9681 28.2956 16.665 27.3575C17.3729 27.4921 18.1021 27.4639 18.7975 27.275C17.7272 27.0595 16.7645 26.4801 16.0731 25.6351C15.3818 24.7901 15.0043 23.7318 15.005 22.64V22.5825C15.6425 22.935 16.3725 23.15 17.1475 23.175C16.1445 22.5073 15.4345 21.4817 15.1626 20.3078C14.8908 19.134 15.0776 17.9006 15.685 16.86C16.8728 18.3195 18.3537 19.5136 20.0318 20.3649C21.71 21.2163 23.5482 21.706 25.4275 21.8025C25.1886 20.7883 25.2914 19.7235 25.72 18.7738C26.1487 17.824 26.8791 17.0425 27.7977 16.5507C28.7163 16.0588 29.7717 15.8843 30.7997 16.0542C31.8278 16.2241 32.7709 16.7288 33.4825 17.49C34.5404 17.2805 35.5549 16.8925 36.4825 16.3425C36.1299 17.4378 35.3917 18.3679 34.405 18.96C35.3421 18.8471 36.2572 18.5952 37.12 18.2125C36.4877 19.1634 35.689 19.9925 34.7625 20.66Z" fill="#009DFF"/>
</svg>